<mxfile host="app.diagrams.net" modified="2020-10-26T12:32:32.484Z" agent="5.0 (Macintosh; Intel Mac OS X 10_15_7) AppleWebKit/537.36 (KHTML, like Gecko) Chrome/83.0.4103.61 Safari/537.36" etag="EDoaurwrGqPqCyYcqVZw" version="13.7.5" type="github">
  <diagram id="jV7EGz2FMvTnKeeAJpUA" name="Page-1">
    <mxGraphModel dx="1954" dy="1269" grid="1" gridSize="10" guides="1" tooltips="1" connect="1" arrows="1" fold="1" page="1" pageScale="1" pageWidth="827" pageHeight="1169" math="0" shadow="0">
      <root>
        <mxCell id="0" />
        <mxCell id="1" parent="0" />
        <mxCell id="cTWvNA8egQGXXlsdOXeB-5" value="graphics_lib" style="shape=umlFrame;whiteSpace=wrap;html=1;width=80;height=30;" vertex="1" parent="1">
          <mxGeometry x="940" y="535" width="660" height="280" as="geometry" />
        </mxCell>
        <mxCell id="cTWvNA8egQGXXlsdOXeB-7" value="&lt;p style=&quot;margin: 0px ; margin-top: 4px ; text-align: center&quot;&gt;&lt;i&gt;&amp;lt;&amp;lt;Interface&amp;gt;&amp;gt;&lt;/i&gt;&lt;br&gt;&lt;b&gt;Canvas&lt;/b&gt;&lt;/p&gt;&lt;hr size=&quot;1&quot;&gt;&lt;p style=&quot;margin: 0px ; margin-left: 4px&quot;&gt;+ field1: Type&lt;br&gt;+ field2: Type&lt;/p&gt;&lt;hr size=&quot;1&quot;&gt;&lt;p style=&quot;margin: 0px ; margin-left: 4px&quot;&gt;+ moveTo(x: Double, y: Double)&lt;/p&gt;&lt;p style=&quot;margin: 0px ; margin-left: 4px&quot;&gt;+ lineTo(x: Double, y: Double)&lt;/p&gt;&lt;p style=&quot;margin: 0px ; margin-left: 4px&quot;&gt;+ setColor(color: UINT32)&lt;/p&gt;&lt;p style=&quot;margin: 0px ; margin-left: 4px&quot;&gt;&lt;br&gt;&lt;/p&gt;" style="verticalAlign=top;align=left;overflow=fill;fontSize=12;fontFamily=Helvetica;html=1;" vertex="1" parent="1">
          <mxGeometry x="1040" y="565" width="190" height="140" as="geometry" />
        </mxCell>
        <mxCell id="cTWvNA8egQGXXlsdOXeB-8" value="&lt;p style=&quot;margin: 0px ; margin-top: 4px ; text-align: center&quot;&gt;&lt;b&gt;CanvasImpl&lt;/b&gt;&lt;/p&gt;&lt;hr size=&quot;1&quot;&gt;&lt;p style=&quot;margin: 0px ; margin-left: 4px&quot;&gt;+moveto(x: Double, y: Double)&lt;/p&gt;&lt;p style=&quot;margin: 0px ; margin-left: 4px&quot;&gt;+lineTo(x: Double, y: Double)&lt;/p&gt;&lt;p style=&quot;margin: 0px ; margin-left: 4px&quot;&gt;+ setColor(color: Uint32)&lt;/p&gt;&lt;p style=&quot;margin: 0px ; margin-left: 4px&quot;&gt;&lt;br&gt;&lt;/p&gt;" style="verticalAlign=top;align=left;overflow=fill;fontSize=12;fontFamily=Helvetica;html=1;" vertex="1" parent="1">
          <mxGeometry x="1331" y="645" width="209" height="120" as="geometry" />
        </mxCell>
        <mxCell id="cTWvNA8egQGXXlsdOXeB-9" value="" style="endArrow=block;dashed=1;endFill=0;endSize=12;html=1;entryX=1;entryY=0.25;entryDx=0;entryDy=0;exitX=0;exitY=0.25;exitDx=0;exitDy=0;" edge="1" parent="1" source="cTWvNA8egQGXXlsdOXeB-8" target="cTWvNA8egQGXXlsdOXeB-7">
          <mxGeometry width="160" relative="1" as="geometry">
            <mxPoint x="1270" y="615" as="sourcePoint" />
            <mxPoint x="1430" y="615" as="targetPoint" />
          </mxGeometry>
        </mxCell>
        <mxCell id="cTWvNA8egQGXXlsdOXeB-10" value="modern_graphics_lib" style="shape=umlFrame;whiteSpace=wrap;html=1;width=110;height=40;" vertex="1" parent="1">
          <mxGeometry x="60" y="414" width="740" height="320" as="geometry" />
        </mxCell>
        <mxCell id="cTWvNA8egQGXXlsdOXeB-12" value="&lt;p style=&quot;margin: 0px ; margin-top: 4px ; text-align: center&quot;&gt;&lt;b&gt;ModernGraphicsRender&lt;/b&gt;&lt;/p&gt;&lt;hr size=&quot;1&quot;&gt;&lt;p style=&quot;margin: 0px ; margin-left: 4px&quot;&gt;+ drawing: Bool&lt;/p&gt;&lt;p style=&quot;margin: 0px ; margin-left: 4px&quot;&gt;+ stream: Stream&lt;/p&gt;&lt;hr size=&quot;1&quot;&gt;&lt;p style=&quot;margin: 0px ; margin-left: 4px&quot;&gt;+ drawLine(start: Point, end: Point, color: RGBAColor)&lt;/p&gt;&lt;p style=&quot;margin: 0px ; margin-left: 4px&quot;&gt;+ beginDraw()&lt;/p&gt;&lt;p style=&quot;margin: 0px ; margin-left: 4px&quot;&gt;+ endDraw()&lt;/p&gt;" style="verticalAlign=top;align=left;overflow=fill;fontSize=12;fontFamily=Helvetica;html=1;" vertex="1" parent="1">
          <mxGeometry x="170" y="500" width="310" height="180" as="geometry" />
        </mxCell>
        <mxCell id="cTWvNA8egQGXXlsdOXeB-15" value="Point&#xa;" style="swimlane;fontStyle=0;childLayout=stackLayout;horizontal=1;startSize=26;fillColor=none;horizontalStack=0;resizeParent=1;resizeParentMax=0;resizeLast=0;collapsible=1;marginBottom=0;" vertex="1" parent="1">
          <mxGeometry x="580" y="535" width="140" height="78" as="geometry" />
        </mxCell>
        <mxCell id="cTWvNA8egQGXXlsdOXeB-17" value="x: Double " style="text;strokeColor=none;fillColor=none;align=left;verticalAlign=top;spacingLeft=4;spacingRight=4;overflow=hidden;rotatable=0;points=[[0,0.5],[1,0.5]];portConstraint=eastwest;" vertex="1" parent="cTWvNA8egQGXXlsdOXeB-15">
          <mxGeometry y="26" width="140" height="26" as="geometry" />
        </mxCell>
        <mxCell id="cTWvNA8egQGXXlsdOXeB-18" value="y: Double&#xa;" style="text;strokeColor=none;fillColor=none;align=left;verticalAlign=top;spacingLeft=4;spacingRight=4;overflow=hidden;rotatable=0;points=[[0,0.5],[1,0.5]];portConstraint=eastwest;" vertex="1" parent="cTWvNA8egQGXXlsdOXeB-15">
          <mxGeometry y="52" width="140" height="26" as="geometry" />
        </mxCell>
        <mxCell id="cTWvNA8egQGXXlsdOXeB-19" value="Use" style="endArrow=open;endSize=12;dashed=1;html=1;" edge="1" parent="1" source="cTWvNA8egQGXXlsdOXeB-12" target="cTWvNA8egQGXXlsdOXeB-18">
          <mxGeometry width="160" relative="1" as="geometry">
            <mxPoint x="500" y="480" as="sourcePoint" />
            <mxPoint x="660" y="480" as="targetPoint" />
          </mxGeometry>
        </mxCell>
        <mxCell id="cTWvNA8egQGXXlsdOXeB-20" value="shape_drawing_lib&lt;br&gt;" style="shape=umlFrame;whiteSpace=wrap;html=1;width=120;height=40;" vertex="1" parent="1">
          <mxGeometry x="20" y="860" width="990" height="400" as="geometry" />
        </mxCell>
        <mxCell id="cTWvNA8egQGXXlsdOXeB-21" value="«protocol»&lt;br&gt;&lt;b&gt;Drawable&lt;br&gt;+ draw(canvas: canvas)&lt;br&gt;&lt;br&gt;&lt;br&gt;&lt;/b&gt;" style="html=1;" vertex="1" parent="1">
          <mxGeometry x="90" y="910" width="180" height="70" as="geometry" />
        </mxCell>
        <mxCell id="cTWvNA8egQGXXlsdOXeB-22" value="&lt;p style=&quot;margin: 0px ; margin-top: 4px ; text-align: center&quot;&gt;&lt;b&gt;Triangle&lt;/b&gt;&lt;/p&gt;&lt;hr size=&quot;1&quot;&gt;&lt;p style=&quot;margin: 0px ; margin-left: 4px&quot;&gt;+ vertex1: Point&lt;/p&gt;&lt;p style=&quot;margin: 0px ; margin-left: 4px&quot;&gt;+ vertex2: Point&lt;/p&gt;&lt;p style=&quot;margin: 0px ; margin-left: 4px&quot;&gt;+ vertex3: Point&lt;/p&gt;&lt;hr size=&quot;1&quot;&gt;&lt;p style=&quot;margin: 0px ; margin-left: 4px&quot;&gt;+ draw(canvas: Canvas)&lt;/p&gt;&lt;p style=&quot;margin: 0px ; margin-left: 4px&quot;&gt;&lt;br&gt;&lt;/p&gt;" style="verticalAlign=top;align=left;overflow=fill;fontSize=12;fontFamily=Helvetica;html=1;" vertex="1" parent="1">
          <mxGeometry x="295" y="1050" width="190" height="110" as="geometry" />
        </mxCell>
        <mxCell id="cTWvNA8egQGXXlsdOXeB-23" value="&lt;p style=&quot;margin: 0px ; margin-top: 4px ; text-align: center&quot;&gt;&lt;b&gt;Rectangle&lt;/b&gt;&lt;/p&gt;&lt;hr size=&quot;1&quot;&gt;&lt;p style=&quot;margin: 0px ; margin-left: 4px&quot;&gt;+ lefttop: Point&lt;/p&gt;&lt;p style=&quot;margin: 0px ; margin-left: 4px&quot;&gt;+ width: Double&lt;/p&gt;&lt;p style=&quot;margin: 0px ; margin-left: 4px&quot;&gt;+ height: Double&lt;/p&gt;&lt;p style=&quot;margin: 0px ; margin-left: 4px&quot;&gt;+ color: Uint32&lt;/p&gt;&lt;hr size=&quot;1&quot;&gt;&lt;p style=&quot;margin: 0px ; margin-left: 4px&quot;&gt;+ draw(canvas: Canvas&lt;span&gt;)&lt;/span&gt;&lt;/p&gt;" style="verticalAlign=top;align=left;overflow=fill;fontSize=12;fontFamily=Helvetica;html=1;" vertex="1" parent="1">
          <mxGeometry x="540" y="900" width="190" height="130" as="geometry" />
        </mxCell>
        <mxCell id="cTWvNA8egQGXXlsdOXeB-24" value="" style="endArrow=block;dashed=1;endFill=0;endSize=12;html=1;" edge="1" parent="1" source="cTWvNA8egQGXXlsdOXeB-23" target="cTWvNA8egQGXXlsdOXeB-21">
          <mxGeometry width="160" relative="1" as="geometry">
            <mxPoint x="170" y="1040" as="sourcePoint" />
            <mxPoint x="330" y="1040" as="targetPoint" />
          </mxGeometry>
        </mxCell>
        <mxCell id="cTWvNA8egQGXXlsdOXeB-25" value="" style="endArrow=block;dashed=1;endFill=0;endSize=12;html=1;" edge="1" parent="1" source="cTWvNA8egQGXXlsdOXeB-22" target="cTWvNA8egQGXXlsdOXeB-21">
          <mxGeometry width="160" relative="1" as="geometry">
            <mxPoint x="525" y="980.0041758241758" as="sourcePoint" />
            <mxPoint x="255" y="968.1360439560441" as="targetPoint" />
          </mxGeometry>
        </mxCell>
        <mxCell id="cTWvNA8egQGXXlsdOXeB-26" value="&lt;p style=&quot;margin: 0px ; margin-top: 4px ; text-align: center&quot;&gt;&lt;b&gt;CanvasPainter&lt;/b&gt;&lt;/p&gt;&lt;hr size=&quot;1&quot;&gt;&lt;p style=&quot;margin: 0px ; margin-left: 4px&quot;&gt;+ canvas: Canvas&lt;/p&gt;&lt;hr size=&quot;1&quot;&gt;&lt;p style=&quot;margin: 0px ; margin-left: 4px&quot;&gt;+ draw(drawable: CanvasDrawable)&lt;/p&gt;" style="verticalAlign=top;align=left;overflow=fill;fontSize=12;fontFamily=Helvetica;html=1;" vertex="1" parent="1">
          <mxGeometry x="650" y="1080" width="210" height="90" as="geometry" />
        </mxCell>
        <mxCell id="cTWvNA8egQGXXlsdOXeB-27" value="" style="endArrow=diamondThin;endFill=0;endSize=24;html=1;" edge="1" parent="1" source="cTWvNA8egQGXXlsdOXeB-7" target="cTWvNA8egQGXXlsdOXeB-26">
          <mxGeometry width="160" relative="1" as="geometry">
            <mxPoint x="860" y="1100" as="sourcePoint" />
            <mxPoint x="1190" y="990" as="targetPoint" />
          </mxGeometry>
        </mxCell>
        <mxCell id="cTWvNA8egQGXXlsdOXeB-28" value="Use" style="endArrow=open;endSize=12;dashed=1;html=1;entryX=1;entryY=0.75;entryDx=0;entryDy=0;exitX=0;exitY=0;exitDx=0;exitDy=0;" edge="1" parent="1" source="cTWvNA8egQGXXlsdOXeB-26" target="cTWvNA8egQGXXlsdOXeB-21">
          <mxGeometry width="160" relative="1" as="geometry">
            <mxPoint x="530" y="1140" as="sourcePoint" />
            <mxPoint x="690" y="1140" as="targetPoint" />
          </mxGeometry>
        </mxCell>
        <mxCell id="cTWvNA8egQGXXlsdOXeB-33" value="" style="endArrow=diamondThin;endFill=1;endSize=24;html=1;entryX=0.75;entryY=0;entryDx=0;entryDy=0;exitX=0.207;exitY=1.065;exitDx=0;exitDy=0;exitPerimeter=0;" edge="1" parent="1" source="cTWvNA8egQGXXlsdOXeB-18" target="cTWvNA8egQGXXlsdOXeB-22">
          <mxGeometry width="160" relative="1" as="geometry">
            <mxPoint x="610" y="800" as="sourcePoint" />
            <mxPoint x="770" y="800" as="targetPoint" />
          </mxGeometry>
        </mxCell>
        <mxCell id="cTWvNA8egQGXXlsdOXeB-34" value="" style="endArrow=diamondThin;endFill=1;endSize=24;html=1;" edge="1" parent="1" source="cTWvNA8egQGXXlsdOXeB-18" target="cTWvNA8egQGXXlsdOXeB-23">
          <mxGeometry width="160" relative="1" as="geometry">
            <mxPoint x="618.98" y="624.69" as="sourcePoint" />
            <mxPoint x="447.5" y="1060" as="targetPoint" />
          </mxGeometry>
        </mxCell>
        <mxCell id="cTWvNA8egQGXXlsdOXeB-35" value="&lt;p style=&quot;margin: 0px ; margin-top: 4px ; text-align: center&quot;&gt;&lt;b&gt;ModernCanvasAdapter&lt;/b&gt;&lt;/p&gt;&lt;hr size=&quot;1&quot;&gt;&lt;p style=&quot;margin: 0px ; margin-left: 4px&quot;&gt;+ moderncanvasRenderer: ModernCanvasRenderer&lt;/p&gt;&lt;p style=&quot;margin: 0px ; margin-left: 4px&quot;&gt;+ start: Point&amp;nbsp;&lt;/p&gt;&lt;p style=&quot;margin: 0px ; margin-left: 4px&quot;&gt;+ color:Uint32&lt;/p&gt;&lt;p style=&quot;margin: 0px ; margin-left: 4px&quot;&gt;&lt;br&gt;&lt;/p&gt;&lt;p style=&quot;margin: 0px 0px 0px 4px&quot;&gt;+ moveTo(x: Double, y: Double&lt;/p&gt;&lt;p style=&quot;margin: 0px 0px 0px 4px&quot;&gt;+ lineTo(start: Point, end; Point)&lt;/p&gt;&lt;p style=&quot;margin: 0px 0px 0px 4px&quot;&gt;+ setColor(color: Uint32)&lt;/p&gt;" style="verticalAlign=top;align=left;overflow=fill;fontSize=12;fontFamily=Helvetica;html=1;" vertex="1" parent="1">
          <mxGeometry x="890" y="270" width="300" height="140" as="geometry" />
        </mxCell>
        <mxCell id="cTWvNA8egQGXXlsdOXeB-36" value="" style="endArrow=diamondThin;endFill=0;endSize=24;html=1;entryX=0;entryY=0.5;entryDx=0;entryDy=0;" edge="1" parent="1" source="cTWvNA8egQGXXlsdOXeB-12" target="cTWvNA8egQGXXlsdOXeB-35">
          <mxGeometry width="160" relative="1" as="geometry">
            <mxPoint x="600" y="350" as="sourcePoint" />
            <mxPoint x="760" y="350" as="targetPoint" />
          </mxGeometry>
        </mxCell>
        <mxCell id="cTWvNA8egQGXXlsdOXeB-37" value="" style="endArrow=diamondThin;endFill=1;endSize=24;html=1;exitX=1;exitY=0.5;exitDx=0;exitDy=0;" edge="1" parent="1" source="cTWvNA8egQGXXlsdOXeB-17" target="cTWvNA8egQGXXlsdOXeB-35">
          <mxGeometry width="160" relative="1" as="geometry">
            <mxPoint x="970" y="690" as="sourcePoint" />
            <mxPoint x="1130" y="690" as="targetPoint" />
          </mxGeometry>
        </mxCell>
        <mxCell id="cTWvNA8egQGXXlsdOXeB-38" value="" style="endArrow=block;dashed=1;endFill=0;endSize=12;html=1;entryX=0.377;entryY=0.005;entryDx=0;entryDy=0;entryPerimeter=0;" edge="1" parent="1" source="cTWvNA8egQGXXlsdOXeB-35" target="cTWvNA8egQGXXlsdOXeB-7">
          <mxGeometry width="160" relative="1" as="geometry">
            <mxPoint x="460" y="350" as="sourcePoint" />
            <mxPoint x="620" y="350" as="targetPoint" />
          </mxGeometry>
        </mxCell>
      </root>
    </mxGraphModel>
  </diagram>
</mxfile>
